<svg xmlns="http://www.w3.org/2000/svg" xmlns:xlink="http://www.w3.org/1999/xlink" width="500" zoomAndPan="magnify" viewBox="0 0 375 374.999991" height="500" preserveAspectRatio="xMidYMid meet" version="1.0"><defs><g/><clipPath id="406ff1466d"><path d="M 24 19 L 354 19 L 354 351 L 24 351 Z M 24 19 " clip-rule="nonzero"/></clipPath><clipPath id="7090c3f475"><path d="M 258.503906 -38.285156 L 410.121094 259.878906 L 119.308594 407.753906 L -32.308594 109.589844 Z M 258.503906 -38.285156 " clip-rule="nonzero"/></clipPath><clipPath id="3f3b31fe19"><path d="M 258.503906 -38.285156 L 410.121094 259.878906 L 119.308594 407.753906 L -32.308594 109.589844 Z M 258.503906 -38.285156 " clip-rule="nonzero"/></clipPath><clipPath id="65c81badfd"><path d="M 258.503906 -38.285156 L 410.121094 259.878906 L 119.308594 407.753906 L -32.308594 109.589844 Z M 258.503906 -38.285156 " clip-rule="nonzero"/></clipPath><clipPath id="1202cdec5f"><path d="M 311.421875 77.660156 C 250.535156 8.121094 146.027344 -0.371094 78.464844 58.726562 C 63.867188 71.488281 52.023438 86.667969 42.96875 103.691406 L 43.398438 103.917969 L 42.96875 103.691406 C 27.457031 132.847656 21.324219 165.960938 25.21875 199.4375 C 29.207031 233.65625 43.46875 265.632812 66.46875 291.902344 C 127.300781 361.375 231.703125 369.859375 299.199219 310.820312 C 366.769531 251.722656 372.3125 147.195312 311.421875 77.660156 Z M 60.679688 260.667969 C 63.257812 263.613281 65.507812 265.914062 67.203125 267.550781 C 78.5 278.460938 94.117188 279.289062 110.660156 280.164062 C 129.761719 281.175781 151.417969 282.324219 170.023438 299.621094 C 185.777344 314.273438 201.253906 327.097656 218.757812 332.921875 C 201.007812 327.652344 185.402344 315.632812 170.050781 302.285156 C 151.539062 286.191406 130.359375 284.359375 111.671875 282.738281 C 94.90625 281.289062 79.070312 279.917969 67.636719 268.679688 C 57.4375 258.65625 47.855469 245.652344 40.535156 230.414062 C 47.140625 243.75 54.761719 253.914062 60.679688 260.667969 Z M 53.460938 250.230469 C 55.769531 253.328125 58.003906 256.0625 60.042969 258.394531 C 62.910156 261.675781 65.410156 264.1875 67.25 265.925781 C 78.265625 276.363281 93.597656 276.65625 109.828125 276.96875 C 129.429688 277.34375 151.640625 277.769531 170.449219 296.433594 C 185.890625 311.761719 200.21875 325.046875 217.308594 331.667969 C 200.570312 325.648438 185.660156 313.246094 170.476562 299.128906 C 151.691406 281.660156 129.910156 280.507812 110.691406 279.492188 C 94.28125 278.621094 78.785156 277.804688 67.667969 267.066406 C 65.78125 265.242188 60.050781 259.441406 53.460938 250.230469 Z M 169.617188 305.441406 C 151.445312 290.710938 130.921875 288.246094 112.8125 286.074219 C 95.632812 284.015625 79.40625 282.0625 67.609375 270.289062 C 58.425781 261.121094 49.765625 249.507812 42.78125 236.058594 C 49.046875 247.792969 55.917969 256.800781 61.257812 262.902344 C 63.570312 265.539062 65.59375 267.632812 67.152344 269.167969 C 78.761719 280.578125 94.722656 281.960938 111.613281 283.425781 C 130.191406 285.035156 151.253906 286.859375 169.59375 302.800781 C 185.367188 316.515625 201.40625 328.835938 219.738281 333.953125 C 201.128906 329.398438 184.945312 317.859375 169.617188 305.4375 Z M 220.339844 334.855469 C 200.984375 330.976562 184.308594 320 169.183594 308.597656 C 151.441406 295.21875 132.480469 292.324219 114.140625 289.519531 C 96.472656 286.824219 79.785156 284.273438 67.574219 271.902344 C 58.414062 262.621094 49.777344 250.917969 42.804688 237.40625 C 49.273438 249.617188 56.378906 258.925781 61.792969 265.109375 C 63.851562 267.457031 65.667969 269.363281 67.109375 270.796875 C 79.082031 282.75 95.425781 284.710938 112.730469 286.789062 C 131.625 289.054688 151.160156 291.398438 169.167969 305.996094 C 184.792969 318.664062 201.300781 330.40625 220.339844 334.863281 Z M 61.984375 266.960938 C 63.628906 268.84375 65.324219 270.664062 67.050781 272.417969 C 79.433594 284.957031 96.242188 287.527344 114.03125 290.242188 C 132.277344 293.035156 151.148438 295.914062 168.738281 309.183594 C 182.886719 319.847656 199.71875 331.039062 218.855469 335.332031 C 200.652344 331.902344 184.214844 322.566406 168.746094 311.753906 C 151.53125 299.71875 133.324219 296.355469 115.707031 293.097656 C 97.460938 289.730469 80.230469 286.542969 67.539062 273.519531 C 57.5 263.214844 48.070312 250.042969 40.785156 234.746094 C 46.515625 246.535156 53.726562 257.539062 61.980469 266.96875 Z M 62.433594 269.085938 C 63.925781 270.789062 65.449219 272.441406 67.003906 274.039062 C 79.859375 287.234375 97.210938 290.441406 115.578125 293.839844 C 133.113281 297.078125 151.238281 300.429688 168.320312 312.367188 C 183.191406 322.761719 203.167969 334.988281 225.871094 337.265625 C 226.902344 337.367188 227.9375 337.429688 228.96875 337.488281 C 206.585938 336.746094 186.796875 326.835938 168.320312 314.90625 C 151.753906 304.207031 134.386719 300.464844 117.597656 296.84375 C 98.65625 292.753906 80.765625 288.898438 67.519531 275.125 C 57.710938 264.929688 48.492188 251.996094 41.269531 237.042969 C 47.027344 248.753906 54.210938 259.691406 62.441406 269.085938 Z M 64.277344 279.390625 C 65.097656 280.324219 65.925781 281.242188 66.761719 282.15625 C 83.886719 300.742188 106.605469 307.925781 130.660156 315.527344 C 142.34375 319.21875 154.429688 323.035156 166.214844 328.308594 C 190.015625 338.949219 212.585938 343.003906 234.234375 340.445312 C 212.640625 343.535156 190.042969 340.269531 166.125 330.6875 C 156.546875 326.847656 146.78125 323.636719 137.332031 320.535156 C 110.953125 311.859375 86.035156 303.667969 67.355469 283.195312 C 63.097656 278.535156 59.046875 273.445312 55.257812 268.011719 C 58.09375 271.960938 61.097656 275.769531 64.273438 279.398438 Z M 54.480469 265.359375 C 57.425781 269.515625 60.570312 273.507812 63.898438 277.304688 C 64.847656 278.394531 65.824219 279.476562 66.808594 280.535156 C 82.664062 297.578125 103.71875 303.808594 126.007812 310.417969 C 139.378906 314.382812 153.207031 318.476562 166.636719 325.121094 C 186.785156 335.09375 205.78125 340.148438 224.09375 340.28125 C 205.667969 340.714844 186.554688 336.46875 166.566406 327.535156 C 154.730469 322.242188 142.621094 318.414062 130.921875 314.714844 C 106.976562 307.152344 84.363281 300.007812 67.390625 281.582031 C 62.828125 276.628906 58.5 271.203125 54.476562 265.367188 Z M 62.675781 271.003906 C 64.074219 272.59375 65.5 274.148438 66.953125 275.664062 C 80.367188 289.605469 98.367188 293.488281 117.425781 297.601562 C 134.152344 301.207031 151.449219 304.9375 167.894531 315.558594 C 190.140625 329.921875 208.234375 336.851562 226.550781 338.023438 C 204.589844 337.273438 185.191406 328.347656 167.882812 318.0625 C 152.121094 308.699219 135.726562 304.683594 119.871094 300.800781 C 100.082031 295.953125 81.398438 291.371094 67.484375 276.742188 C 60.925781 269.84375 54.640625 261.714844 49.027344 252.601562 C 53.125 259.140625 57.695312 265.3125 62.679688 271.007812 Z M 63.101562 273.113281 C 64.34375 274.53125 65.613281 275.929688 66.90625 277.285156 C 80.976562 292.085938 99.773438 296.691406 119.675781 301.570312 C 135.476562 305.4375 151.8125 309.441406 167.472656 318.746094 C 189.078125 331.582031 207.722656 337.941406 225.980469 338.71875 C 203.585938 338.457031 183.972656 330.207031 167.441406 321.21875 C 152.683594 313.191406 137.429688 309.039062 122.683594 305.023438 C 101.84375 299.355469 82.164062 294 67.453125 278.351562 C 61.847656 272.402344 56.59375 265.714844 51.835938 258.425781 C 55.304688 263.585938 59.058594 268.503906 63.101562 273.113281 Z M 63.503906 275.210938 C 64.597656 276.464844 65.71875 277.695312 66.859375 278.90625 C 81.722656 294.71875 101.511719 300.105469 122.464844 305.808594 C 137.171875 309.8125 152.375 313.949219 167.058594 321.929688 C 182.382812 330.265625 200.335938 337.96875 220.683594 339.347656 C 203.546875 338.648438 185.777344 333.660156 167.007812 324.375 C 153.515625 317.695312 139.652344 313.59375 126.25 309.613281 C 104.070312 303.042969 83.128906 296.835938 67.425781 279.960938 C 62.527344 274.695312 57.910156 268.863281 53.640625 262.578125 C 56.722656 266.984375 60.007812 271.214844 63.511719 275.210938 Z M 64.65625 281.472656 C 65.332031 282.246094 66.019531 283.015625 66.714844 283.777344 C 85.550781 304.414062 110.574219 312.644531 137.0625 321.355469 C 146.496094 324.453125 156.25 327.660156 165.800781 331.492188 C 186.21875 339.671875 205.6875 343.265625 224.390625 342.273438 C 205.5625 343.832031 185.960938 341.039062 165.6875 333.832031 C 159.390625 331.597656 152.980469 329.480469 146.78125 327.429688 C 116.792969 317.523438 88.476562 308.167969 67.335938 284.796875 C 61.582031 278.4375 56.429688 271.679688 51.855469 264.621094 C 55.757812 270.539062 60.03125 276.179688 64.660156 281.472656 Z M 65.027344 283.558594 C 65.566406 284.175781 66.117188 284.792969 66.667969 285.402344 C 87.96875 308.949219 116.394531 318.339844 146.496094 328.285156 C 152.691406 330.332031 159.097656 332.449219 165.386719 334.679688 C 185.828125 341.945312 205.585938 344.757812 224.566406 343.167969 C 205.449219 345.332031 185.554688 343.308594 165.246094 336.992188 L 162.203125 336.050781 C 127.871094 325.390625 92.367188 314.363281 67.300781 286.417969 C 66.875 285.941406 66.460938 285.46875 66.039062 284.988281 C 61.589844 279.910156 57.515625 274.582031 53.792969 269.074219 C 57.269531 274.125 61.011719 278.976562 65.027344 283.5625 Z M 65.324219 285.566406 C 65.75 286.054688 66.183594 286.546875 66.617188 287.027344 C 91.851562 315.171875 127.476562 326.230469 161.929688 336.929688 L 164.96875 337.871094 C 185.402344 344.226562 205.417969 346.261719 224.648438 344.089844 C 205.277344 346.84375 185.109375 345.589844 164.796875 340.152344 C 131.585938 331.269531 94.035156 318.125 67.265625 288.027344 C 66.980469 287.710938 66.707031 287.394531 66.425781 287.078125 C 63.410156 283.628906 60.566406 280.070312 57.875 276.421875 C 60.242188 279.546875 62.726562 282.601562 65.320312 285.566406 Z M 67.210938 291.253906 C 64.21875 287.835938 61.386719 284.3125 58.710938 280.707031 C 61.101562 283.851562 63.597656 286.929688 66.222656 289.921875 L 66.527344 290.273438 C 89.972656 316.78125 122.8125 334.9375 164.152344 344.242188 C 183.644531 348.628906 202.929688 349.410156 221.46875 346.742188 C 166.566406 356.210938 107.351562 337.089844 67.21875 291.253906 Z M 164.355469 343.3125 C 123.21875 334.054688 90.546875 315.996094 67.242188 289.640625 L 66.949219 289.304688 C 64.03125 285.972656 61.269531 282.542969 58.648438 279.027344 C 60.902344 281.980469 63.246094 284.867188 65.707031 287.671875 C 65.992188 288 66.28125 288.324219 66.570312 288.648438 C 93.503906 318.933594 131.21875 332.136719 164.554688 341.058594 C 188.257812 347.402344 211.765625 348.09375 234.046875 343.390625 C 211.804688 348.617188 188.234375 348.6875 164.355469 343.3125 Z M 297.042969 311.367188 C 296.777344 311.59375 296.507812 311.816406 296.238281 312.039062 C 295.945312 312.28125 295.648438 312.527344 295.351562 312.769531 C 295.105469 312.972656 294.855469 313.171875 294.609375 313.371094 C 294.347656 313.570312 294.089844 313.78125 293.835938 313.980469 C 293.625 314.148438 293.410156 314.304688 293.199219 314.464844 C 292.910156 314.691406 292.617188 314.902344 292.324219 315.125 C 292.28125 315.160156 292.234375 315.195312 292.195312 315.226562 C 291.59375 315.671875 291.003906 316.101562 290.402344 316.53125 C 290.375 316.550781 290.347656 316.570312 290.320312 316.589844 C 289.414062 317.226562 288.515625 317.84375 287.613281 318.453125 C 287.449219 318.5625 287.277344 318.683594 287.113281 318.792969 C 286.628906 319.109375 286.136719 319.457031 285.648438 319.769531 C 285.519531 319.851562 285.394531 319.925781 285.269531 320.011719 C 283.972656 320.835938 282.683594 321.617188 281.398438 322.375 C 280.957031 322.632812 280.519531 322.894531 280.074219 323.144531 C 279.136719 323.6875 278.199219 324.203125 277.273438 324.707031 C 276.554688 325.09375 275.839844 325.464844 275.128906 325.832031 C 275.039062 325.878906 274.949219 325.925781 274.859375 325.96875 C 274.648438 326.078125 274.445312 326.175781 274.238281 326.28125 C 225.605469 350.253906 196.730469 321.597656 170.914062 295.972656 C 151.925781 277.121094 129.566406 276.695312 109.84375 276.316406 C 93.742188 276.007812 78.535156 275.714844 67.703125 265.453125 C 62.367188 260.398438 26.28125 224.085938 26.925781 168.390625 C 27.0625 161.277344 27.753906 153.980469 29.113281 146.527344 C 29.164062 146.230469 29.21875 145.941406 29.273438 145.644531 C 29.507812 144.40625 29.78125 143.15625 30.046875 141.914062 C 30.308594 140.730469 30.566406 139.554688 30.855469 138.371094 C 30.976562 137.875 31.109375 137.378906 31.234375 136.878906 C 31.691406 135.097656 32.167969 133.320312 32.691406 131.535156 C 32.691406 131.535156 32.691406 131.535156 32.695312 131.53125 C 33.273438 129.566406 33.90625 127.605469 34.578125 125.644531 C 34.65625 125.417969 34.730469 125.195312 34.8125 124.96875 C 35.363281 123.382812 35.949219 121.800781 36.558594 120.214844 C 36.828125 119.519531 37.101562 118.824219 37.382812 118.125 C 37.664062 117.414062 37.96875 116.703125 38.269531 115.992188 C 38.398438 115.691406 38.523438 115.386719 38.648438 115.085938 C 38.707031 114.953125 38.761719 114.816406 38.816406 114.6875 C 39.222656 113.75 39.628906 112.808594 40.050781 111.875 C 40.109375 111.761719 40.152344 111.648438 40.203125 111.53125 C 40.234375 111.460938 40.265625 111.398438 40.296875 111.332031 C 40.425781 111.058594 40.558594 110.777344 40.691406 110.503906 C 41.011719 109.808594 41.355469 109.113281 41.691406 108.414062 C 41.765625 108.261719 41.84375 108.105469 41.917969 107.953125 C 42.0625 107.660156 42.210938 107.367188 42.355469 107.070312 C 42.472656 106.84375 42.582031 106.617188 42.699219 106.390625 C 43.078125 105.644531 43.441406 104.890625 43.835938 104.148438 C 52.816406 87.265625 64.847656 72.363281 79.320312 59.703125 C 146.347656 1.078125 250.023438 9.519531 310.441406 78.515625 C 370.855469 147.511719 365.585938 251.460938 298.5625 310.085938 C 298.0625 310.523438 297.550781 310.945312 297.050781 311.375 Z M 297.042969 311.367188 " clip-rule="nonzero"/></clipPath><linearGradient x1="-153.130359" gradientTransform="matrix(0.217194, 0.427129, -0.427616, 0.217441, 258.450738, -38.259949)" y1="339.92001" x2="866.895375" gradientUnits="userSpaceOnUse" y2="339.92001" id="042c39bc6d"><stop stop-opacity="1" stop-color="rgb(74.099731%, 39.599609%, 7.499695%)" offset="0"/><stop stop-opacity="1" stop-color="rgb(74.099731%, 39.599609%, 7.499695%)" offset="0.0625"/><stop stop-opacity="1" stop-color="rgb(74.099731%, 39.599609%, 7.499695%)" offset="0.078125"/><stop stop-opacity="1" stop-color="rgb(74.099731%, 39.599609%, 7.499695%)" offset="0.0859375"/><stop stop-opacity="1" stop-color="rgb(74.29657%, 39.942932%, 7.778931%)" offset="0.0898438"/><stop stop-opacity="1" stop-color="rgb(74.493408%, 40.286255%, 8.059692%)" offset="0.09375"/><stop stop-opacity="1" stop-color="rgb(75.05188%, 41.25824%, 8.853149%)" offset="0.0976562"/><stop stop-opacity="1" stop-color="rgb(75.610352%, 42.230225%, 9.646606%)" offset="0.101563"/><stop stop-opacity="1" stop-color="rgb(76.168823%, 43.202209%, 10.440063%)" offset="0.105469"/><stop stop-opacity="1" stop-color="rgb(76.727295%, 44.17572%, 11.233521%)" offset="0.109375"/><stop stop-opacity="1" stop-color="rgb(77.285767%, 45.147705%, 12.025452%)" offset="0.113281"/><stop stop-opacity="1" stop-color="rgb(77.844238%, 46.11969%, 12.818909%)" offset="0.117188"/><stop stop-opacity="1" stop-color="rgb(78.401184%, 47.091675%, 13.612366%)" offset="0.121094"/><stop stop-opacity="1" stop-color="rgb(78.959656%, 48.06366%, 14.405823%)" offset="0.125"/><stop stop-opacity="1" stop-color="rgb(79.518127%, 49.035645%, 15.19928%)" offset="0.128906"/><stop stop-opacity="1" stop-color="rgb(80.076599%, 50.007629%, 15.992737%)" offset="0.132812"/><stop stop-opacity="1" stop-color="rgb(80.635071%, 50.979614%, 16.784668%)" offset="0.136719"/><stop stop-opacity="1" stop-color="rgb(81.193542%, 51.951599%, 17.578125%)" offset="0.140625"/><stop stop-opacity="1" stop-color="rgb(81.752014%, 52.923584%, 18.371582%)" offset="0.144531"/><stop stop-opacity="1" stop-color="rgb(82.310486%, 53.897095%, 19.165039%)" offset="0.148438"/><stop stop-opacity="1" stop-color="rgb(82.867432%, 54.86908%, 19.958496%)" offset="0.152344"/><stop stop-opacity="1" stop-color="rgb(83.425903%, 55.841064%, 20.751953%)" offset="0.15625"/><stop stop-opacity="1" stop-color="rgb(83.984375%, 56.813049%, 21.54541%)" offset="0.160156"/><stop stop-opacity="1" stop-color="rgb(84.542847%, 57.785034%, 22.338867%)" offset="0.164062"/><stop stop-opacity="1" stop-color="rgb(85.101318%, 58.757019%, 23.130798%)" offset="0.167969"/><stop stop-opacity="1" stop-color="rgb(85.65979%, 59.729004%, 23.924255%)" offset="0.171875"/><stop stop-opacity="1" stop-color="rgb(86.218262%, 60.700989%, 24.717712%)" offset="0.175781"/><stop stop-opacity="1" stop-color="rgb(86.776733%, 61.672974%, 25.511169%)" offset="0.179688"/><stop stop-opacity="1" stop-color="rgb(87.333679%, 62.644958%, 26.304626%)" offset="0.183594"/><stop stop-opacity="1" stop-color="rgb(87.892151%, 63.618469%, 27.098083%)" offset="0.1875"/><stop stop-opacity="1" stop-color="rgb(88.450623%, 64.590454%, 27.890015%)" offset="0.191406"/><stop stop-opacity="1" stop-color="rgb(89.009094%, 65.562439%, 28.683472%)" offset="0.195312"/><stop stop-opacity="1" stop-color="rgb(89.567566%, 66.534424%, 29.476929%)" offset="0.199219"/><stop stop-opacity="1" stop-color="rgb(90.126038%, 67.506409%, 30.270386%)" offset="0.203125"/><stop stop-opacity="1" stop-color="rgb(90.684509%, 68.478394%, 31.063843%)" offset="0.207031"/><stop stop-opacity="1" stop-color="rgb(91.242981%, 69.450378%, 31.8573%)" offset="0.210938"/><stop stop-opacity="1" stop-color="rgb(91.799927%, 70.422363%, 32.649231%)" offset="0.214844"/><stop stop-opacity="1" stop-color="rgb(92.358398%, 71.394348%, 33.442688%)" offset="0.21875"/><stop stop-opacity="1" stop-color="rgb(92.91687%, 72.366333%, 34.236145%)" offset="0.222656"/><stop stop-opacity="1" stop-color="rgb(93.475342%, 73.339844%, 35.029602%)" offset="0.226563"/><stop stop-opacity="1" stop-color="rgb(94.033813%, 74.311829%, 35.823059%)" offset="0.230469"/><stop stop-opacity="1" stop-color="rgb(94.592285%, 75.283813%, 36.616516%)" offset="0.234375"/><stop stop-opacity="1" stop-color="rgb(95.150757%, 76.255798%, 37.409973%)" offset="0.238281"/><stop stop-opacity="1" stop-color="rgb(95.709229%, 77.227783%, 38.20343%)" offset="0.242188"/><stop stop-opacity="1" stop-color="rgb(96.266174%, 78.199768%, 38.995361%)" offset="0.246094"/><stop stop-opacity="1" stop-color="rgb(96.824646%, 79.171753%, 39.788818%)" offset="0.25"/><stop stop-opacity="1" stop-color="rgb(97.383118%, 80.143738%, 40.582275%)" offset="0.253906"/><stop stop-opacity="1" stop-color="rgb(97.941589%, 81.115723%, 41.375732%)" offset="0.257812"/><stop stop-opacity="1" stop-color="rgb(98.500061%, 82.087708%, 42.169189%)" offset="0.261719"/><stop stop-opacity="1" stop-color="rgb(99.058533%, 83.061218%, 42.962646%)" offset="0.265625"/><stop stop-opacity="1" stop-color="rgb(99.44458%, 83.734131%, 43.511963%)" offset="0.269531"/><stop stop-opacity="1" stop-color="rgb(99.832153%, 84.407043%, 44.061279%)" offset="0.273438"/><stop stop-opacity="1" stop-color="rgb(99.298096%, 83.479309%, 43.304443%)" offset="0.277344"/><stop stop-opacity="1" stop-color="rgb(98.765564%, 82.551575%, 42.547607%)" offset="0.28125"/><stop stop-opacity="1" stop-color="rgb(98.233032%, 81.62384%, 41.789246%)" offset="0.285156"/><stop stop-opacity="1" stop-color="rgb(97.7005%, 80.696106%, 41.03241%)" offset="0.289063"/><stop stop-opacity="1" stop-color="rgb(97.166443%, 79.766846%, 40.275574%)" offset="0.292969"/><stop stop-opacity="1" stop-color="rgb(96.633911%, 78.839111%, 39.518738%)" offset="0.296875"/><stop stop-opacity="1" stop-color="rgb(96.101379%, 77.911377%, 38.760376%)" offset="0.300781"/><stop stop-opacity="1" stop-color="rgb(95.568848%, 76.983643%, 38.00354%)" offset="0.304688"/><stop stop-opacity="1" stop-color="rgb(95.03479%, 76.055908%, 37.246704%)" offset="0.308594"/><stop stop-opacity="1" stop-color="rgb(94.502258%, 75.128174%, 36.489868%)" offset="0.3125"/><stop stop-opacity="1" stop-color="rgb(93.969727%, 74.200439%, 35.731506%)" offset="0.316406"/><stop stop-opacity="1" stop-color="rgb(93.437195%, 73.272705%, 34.97467%)" offset="0.320313"/><stop stop-opacity="1" stop-color="rgb(92.903137%, 72.343445%, 34.217834%)" offset="0.324219"/><stop stop-opacity="1" stop-color="rgb(92.370605%, 71.41571%, 33.460999%)" offset="0.328125"/><stop stop-opacity="1" stop-color="rgb(91.838074%, 70.487976%, 32.702637%)" offset="0.332031"/><stop stop-opacity="1" stop-color="rgb(91.305542%, 69.560242%, 31.945801%)" offset="0.335938"/><stop stop-opacity="1" stop-color="rgb(90.771484%, 68.632507%, 31.188965%)" offset="0.339844"/><stop stop-opacity="1" stop-color="rgb(90.238953%, 67.704773%, 30.432129%)" offset="0.34375"/><stop stop-opacity="1" stop-color="rgb(89.706421%, 66.777039%, 29.675293%)" offset="0.347656"/><stop stop-opacity="1" stop-color="rgb(89.173889%, 65.849304%, 28.918457%)" offset="0.351563"/><stop stop-opacity="1" stop-color="rgb(88.639832%, 64.920044%, 28.160095%)" offset="0.355469"/><stop stop-opacity="1" stop-color="rgb(88.1073%, 63.99231%, 27.403259%)" offset="0.359375"/><stop stop-opacity="1" stop-color="rgb(87.574768%, 63.064575%, 26.646423%)" offset="0.363281"/><stop stop-opacity="1" stop-color="rgb(87.042236%, 62.136841%, 25.889587%)" offset="0.367188"/><stop stop-opacity="1" stop-color="rgb(86.508179%, 61.209106%, 25.131226%)" offset="0.371094"/><stop stop-opacity="1" stop-color="rgb(85.975647%, 60.281372%, 24.37439%)" offset="0.375"/><stop stop-opacity="1" stop-color="rgb(85.443115%, 59.352112%, 23.617554%)" offset="0.378906"/><stop stop-opacity="1" stop-color="rgb(84.910583%, 58.424377%, 22.860718%)" offset="0.382813"/><stop stop-opacity="1" stop-color="rgb(84.376526%, 57.496643%, 22.102356%)" offset="0.386719"/><stop stop-opacity="1" stop-color="rgb(83.843994%, 56.568909%, 21.34552%)" offset="0.390625"/><stop stop-opacity="1" stop-color="rgb(83.311462%, 55.641174%, 20.588684%)" offset="0.394531"/><stop stop-opacity="1" stop-color="rgb(82.778931%, 54.71344%, 19.831848%)" offset="0.398438"/><stop stop-opacity="1" stop-color="rgb(82.244873%, 53.785706%, 19.073486%)" offset="0.402344"/><stop stop-opacity="1" stop-color="rgb(81.712341%, 52.857971%, 18.31665%)" offset="0.40625"/><stop stop-opacity="1" stop-color="rgb(81.17981%, 51.928711%, 17.559814%)" offset="0.410156"/><stop stop-opacity="1" stop-color="rgb(80.647278%, 51.000977%, 16.802979%)" offset="0.414063"/><stop stop-opacity="1" stop-color="rgb(80.114746%, 50.073242%, 16.046143%)" offset="0.417969"/><stop stop-opacity="1" stop-color="rgb(79.582214%, 49.145508%, 15.289307%)" offset="0.421875"/><stop stop-opacity="1" stop-color="rgb(79.048157%, 48.217773%, 14.530945%)" offset="0.425781"/><stop stop-opacity="1" stop-color="rgb(78.515625%, 47.290039%, 13.774109%)" offset="0.429688"/><stop stop-opacity="1" stop-color="rgb(77.983093%, 46.360779%, 13.017273%)" offset="0.433594"/><stop stop-opacity="1" stop-color="rgb(77.450562%, 45.433044%, 12.260437%)" offset="0.4375"/><stop stop-opacity="1" stop-color="rgb(76.916504%, 44.50531%, 11.502075%)" offset="0.441406"/><stop stop-opacity="1" stop-color="rgb(76.383972%, 43.577576%, 10.745239%)" offset="0.445313"/><stop stop-opacity="1" stop-color="rgb(75.85144%, 42.649841%, 9.988403%)" offset="0.449219"/><stop stop-opacity="1" stop-color="rgb(75.318909%, 41.722107%, 9.231567%)" offset="0.453125"/><stop stop-opacity="1" stop-color="rgb(74.784851%, 40.794373%, 8.473206%)" offset="0.457031"/><stop stop-opacity="1" stop-color="rgb(74.252319%, 39.866638%, 7.71637%)" offset="0.460938"/><stop stop-opacity="1" stop-color="rgb(74.67804%, 40.606689%, 8.320618%)" offset="0.464844"/><stop stop-opacity="1" stop-color="rgb(75.10376%, 41.346741%, 8.924866%)" offset="0.46875"/><stop stop-opacity="1" stop-color="rgb(75.689697%, 42.367554%, 9.757996%)" offset="0.472656"/><stop stop-opacity="1" stop-color="rgb(76.275635%, 43.388367%, 10.591125%)" offset="0.476562"/><stop stop-opacity="1" stop-color="rgb(76.861572%, 44.40918%, 11.424255%)" offset="0.480469"/><stop stop-opacity="1" stop-color="rgb(77.44751%, 45.429993%, 12.257385%)" offset="0.484375"/><stop stop-opacity="1" stop-color="rgb(78.033447%, 46.450806%, 13.090515%)" offset="0.488281"/><stop stop-opacity="1" stop-color="rgb(78.620911%, 47.471619%, 13.923645%)" offset="0.492188"/><stop stop-opacity="1" stop-color="rgb(79.206848%, 48.492432%, 14.755249%)" offset="0.496094"/><stop stop-opacity="1" stop-color="rgb(79.792786%, 49.513245%, 15.588379%)" offset="0.5"/><stop stop-opacity="1" stop-color="rgb(80.378723%, 50.534058%, 16.421509%)" offset="0.503906"/><stop stop-opacity="1" stop-color="rgb(80.964661%, 51.554871%, 17.254639%)" offset="0.507812"/><stop stop-opacity="1" stop-color="rgb(81.550598%, 52.575684%, 18.087769%)" offset="0.511719"/><stop stop-opacity="1" stop-color="rgb(82.138062%, 53.596497%, 18.920898%)" offset="0.515625"/><stop stop-opacity="1" stop-color="rgb(82.723999%, 54.61731%, 19.752502%)" offset="0.519531"/><stop stop-opacity="1" stop-color="rgb(83.309937%, 55.638123%, 20.585632%)" offset="0.523438"/><stop stop-opacity="1" stop-color="rgb(83.895874%, 56.658936%, 21.418762%)" offset="0.527344"/><stop stop-opacity="1" stop-color="rgb(84.481812%, 57.679749%, 22.251892%)" offset="0.53125"/><stop stop-opacity="1" stop-color="rgb(85.067749%, 58.700562%, 23.085022%)" offset="0.535156"/><stop stop-opacity="1" stop-color="rgb(85.655212%, 59.721375%, 23.918152%)" offset="0.539062"/><stop stop-opacity="1" stop-color="rgb(86.24115%, 60.740662%, 24.749756%)" offset="0.542969"/><stop stop-opacity="1" stop-color="rgb(86.827087%, 61.761475%, 25.582886%)" offset="0.546875"/><stop stop-opacity="1" stop-color="rgb(87.413025%, 62.782288%, 26.416016%)" offset="0.550781"/><stop stop-opacity="1" stop-color="rgb(87.998962%, 63.803101%, 27.249146%)" offset="0.554688"/><stop stop-opacity="1" stop-color="rgb(88.5849%, 64.823914%, 28.082275%)" offset="0.558594"/><stop stop-opacity="1" stop-color="rgb(89.172363%, 65.844727%, 28.915405%)" offset="0.5625"/><stop stop-opacity="1" stop-color="rgb(89.758301%, 66.86554%, 29.747009%)" offset="0.566406"/><stop stop-opacity="1" stop-color="rgb(90.344238%, 67.886353%, 30.580139%)" offset="0.570312"/><stop stop-opacity="1" stop-color="rgb(90.930176%, 68.907166%, 31.413269%)" offset="0.574219"/><stop stop-opacity="1" stop-color="rgb(91.516113%, 69.927979%, 32.246399%)" offset="0.578125"/><stop stop-opacity="1" stop-color="rgb(92.102051%, 70.948792%, 33.079529%)" offset="0.582031"/><stop stop-opacity="1" stop-color="rgb(92.689514%, 71.969604%, 33.912659%)" offset="0.585938"/><stop stop-opacity="1" stop-color="rgb(93.275452%, 72.990417%, 34.744263%)" offset="0.589844"/><stop stop-opacity="1" stop-color="rgb(93.861389%, 74.01123%, 35.577393%)" offset="0.59375"/><stop stop-opacity="1" stop-color="rgb(94.447327%, 75.032043%, 36.410522%)" offset="0.597656"/><stop stop-opacity="1" stop-color="rgb(95.033264%, 76.052856%, 37.243652%)" offset="0.601562"/><stop stop-opacity="1" stop-color="rgb(95.619202%, 77.073669%, 38.076782%)" offset="0.605469"/><stop stop-opacity="1" stop-color="rgb(96.206665%, 78.094482%, 38.909912%)" offset="0.609375"/><stop stop-opacity="1" stop-color="rgb(96.792603%, 79.115295%, 39.743042%)" offset="0.613281"/><stop stop-opacity="1" stop-color="rgb(97.37854%, 80.136108%, 40.576172%)" offset="0.617188"/><stop stop-opacity="1" stop-color="rgb(97.964478%, 81.156921%, 41.407776%)" offset="0.621094"/><stop stop-opacity="1" stop-color="rgb(98.550415%, 82.177734%, 42.240906%)" offset="0.625"/><stop stop-opacity="1" stop-color="rgb(99.136353%, 83.197021%, 43.074036%)" offset="0.628906"/><stop stop-opacity="1" stop-color="rgb(99.723816%, 84.217834%, 43.907166%)" offset="0.632812"/><stop stop-opacity="1" stop-color="rgb(99.333191%, 83.540344%, 43.353271%)" offset="0.636719"/><stop stop-opacity="1" stop-color="rgb(98.944092%, 82.862854%, 42.800903%)" offset="0.640625"/><stop stop-opacity="1" stop-color="rgb(98.254395%, 81.661987%, 41.821289%)" offset="0.644531"/><stop stop-opacity="1" stop-color="rgb(97.566223%, 80.461121%, 40.841675%)" offset="0.648438"/><stop stop-opacity="1" stop-color="rgb(96.876526%, 79.260254%, 39.860535%)" offset="0.652344"/><stop stop-opacity="1" stop-color="rgb(96.186829%, 78.059387%, 38.88092%)" offset="0.65625"/><stop stop-opacity="1" stop-color="rgb(95.497131%, 76.858521%, 37.901306%)" offset="0.660156"/><stop stop-opacity="1" stop-color="rgb(94.807434%, 75.657654%, 36.921692%)" offset="0.664062"/><stop stop-opacity="1" stop-color="rgb(94.117737%, 74.456787%, 35.942078%)" offset="0.667969"/><stop stop-opacity="1" stop-color="rgb(93.42804%, 73.25592%, 34.962463%)" offset="0.671875"/><stop stop-opacity="1" stop-color="rgb(92.738342%, 72.055054%, 33.981323%)" offset="0.675781"/><stop stop-opacity="1" stop-color="rgb(92.048645%, 70.854187%, 33.001709%)" offset="0.679688"/><stop stop-opacity="1" stop-color="rgb(91.358948%, 69.65332%, 32.022095%)" offset="0.683594"/><stop stop-opacity="1" stop-color="rgb(90.66925%, 68.452454%, 31.04248%)" offset="0.6875"/><stop stop-opacity="1" stop-color="rgb(89.979553%, 67.251587%, 30.062866%)" offset="0.691406"/><stop stop-opacity="1" stop-color="rgb(89.289856%, 66.05072%, 29.083252%)" offset="0.695313"/><stop stop-opacity="1" stop-color="rgb(88.600159%, 64.849854%, 28.102112%)" offset="0.699219"/><stop stop-opacity="1" stop-color="rgb(87.910461%, 63.648987%, 27.122498%)" offset="0.703125"/><stop stop-opacity="1" stop-color="rgb(87.220764%, 62.44812%, 26.142883%)" offset="0.707031"/><stop stop-opacity="1" stop-color="rgb(86.531067%, 61.247253%, 25.163269%)" offset="0.710938"/><stop stop-opacity="1" stop-color="rgb(85.84137%, 60.046387%, 24.183655%)" offset="0.714844"/><stop stop-opacity="1" stop-color="rgb(85.151672%, 58.84552%, 23.204041%)" offset="0.71875"/><stop stop-opacity="1" stop-color="rgb(84.461975%, 57.644653%, 22.2229%)" offset="0.722656"/><stop stop-opacity="1" stop-color="rgb(83.772278%, 56.443787%, 21.243286%)" offset="0.726563"/><stop stop-opacity="1" stop-color="rgb(83.082581%, 55.24292%, 20.263672%)" offset="0.730469"/><stop stop-opacity="1" stop-color="rgb(82.392883%, 54.042053%, 19.284058%)" offset="0.734375"/><stop stop-opacity="1" stop-color="rgb(81.703186%, 52.841187%, 18.304443%)" offset="0.738281"/><stop stop-opacity="1" stop-color="rgb(81.013489%, 51.64032%, 17.324829%)" offset="0.742188"/><stop stop-opacity="1" stop-color="rgb(80.323792%, 50.439453%, 16.343689%)" offset="0.746094"/><stop stop-opacity="1" stop-color="rgb(79.63562%, 49.238586%, 15.364075%)" offset="0.75"/><stop stop-opacity="1" stop-color="rgb(78.945923%, 48.03772%, 14.38446%)" offset="0.753906"/><stop stop-opacity="1" stop-color="rgb(78.256226%, 46.836853%, 13.404846%)" offset="0.757813"/><stop stop-opacity="1" stop-color="rgb(77.566528%, 45.635986%, 12.425232%)" offset="0.761719"/><stop stop-opacity="1" stop-color="rgb(76.876831%, 44.43512%, 11.445618%)" offset="0.765625"/><stop stop-opacity="1" stop-color="rgb(76.187134%, 43.234253%, 10.464478%)" offset="0.769531"/><stop stop-opacity="1" stop-color="rgb(75.497437%, 42.033386%, 9.484863%)" offset="0.773438"/><stop stop-opacity="1" stop-color="rgb(74.807739%, 40.83252%, 8.505249%)" offset="0.777344"/><stop stop-opacity="1" stop-color="rgb(74.118042%, 39.631653%, 7.525635%)" offset="0.78125"/><stop stop-opacity="1" stop-color="rgb(74.687195%, 40.621948%, 8.334351%)" offset="0.785156"/><stop stop-opacity="1" stop-color="rgb(75.256348%, 41.61377%, 9.143066%)" offset="0.789063"/><stop stop-opacity="1" stop-color="rgb(75.842285%, 42.634583%, 9.97467%)" offset="0.792969"/><stop stop-opacity="1" stop-color="rgb(76.428223%, 43.655396%, 10.8078%)" offset="0.796875"/><stop stop-opacity="1" stop-color="rgb(77.01416%, 44.674683%, 11.64093%)" offset="0.800781"/><stop stop-opacity="1" stop-color="rgb(77.600098%, 45.695496%, 12.47406%)" offset="0.804688"/><stop stop-opacity="1" stop-color="rgb(78.186035%, 46.716309%, 13.30719%)" offset="0.808594"/><stop stop-opacity="1" stop-color="rgb(78.773499%, 47.737122%, 14.14032%)" offset="0.8125"/><stop stop-opacity="1" stop-color="rgb(79.359436%, 48.757935%, 14.971924%)" offset="0.816406"/><stop stop-opacity="1" stop-color="rgb(79.945374%, 49.778748%, 15.805054%)" offset="0.820313"/><stop stop-opacity="1" stop-color="rgb(80.531311%, 50.799561%, 16.638184%)" offset="0.824219"/><stop stop-opacity="1" stop-color="rgb(81.117249%, 51.820374%, 17.471313%)" offset="0.828125"/><stop stop-opacity="1" stop-color="rgb(81.703186%, 52.841187%, 18.304443%)" offset="0.832031"/><stop stop-opacity="1" stop-color="rgb(82.290649%, 53.862%, 19.137573%)" offset="0.835938"/><stop stop-opacity="1" stop-color="rgb(82.876587%, 54.882812%, 19.969177%)" offset="0.839844"/><stop stop-opacity="1" stop-color="rgb(83.462524%, 55.903625%, 20.802307%)" offset="0.84375"/><stop stop-opacity="1" stop-color="rgb(84.048462%, 56.924438%, 21.635437%)" offset="0.847656"/><stop stop-opacity="1" stop-color="rgb(84.634399%, 57.945251%, 22.468567%)" offset="0.851563"/><stop stop-opacity="1" stop-color="rgb(85.220337%, 58.966064%, 23.301697%)" offset="0.855469"/><stop stop-opacity="1" stop-color="rgb(85.8078%, 59.986877%, 24.134827%)" offset="0.859375"/><stop stop-opacity="1" stop-color="rgb(86.393738%, 61.00769%, 24.967957%)" offset="0.863281"/><stop stop-opacity="1" stop-color="rgb(86.979675%, 62.028503%, 25.801086%)" offset="0.867188"/><stop stop-opacity="1" stop-color="rgb(87.565613%, 63.049316%, 26.63269%)" offset="0.871094"/><stop stop-opacity="1" stop-color="rgb(88.15155%, 64.070129%, 27.46582%)" offset="0.875"/><stop stop-opacity="1" stop-color="rgb(88.737488%, 65.090942%, 28.29895%)" offset="0.878906"/><stop stop-opacity="1" stop-color="rgb(89.324951%, 66.111755%, 29.13208%)" offset="0.882813"/><stop stop-opacity="1" stop-color="rgb(89.910889%, 67.131042%, 29.96521%)" offset="0.886719"/><stop stop-opacity="1" stop-color="rgb(90.496826%, 68.151855%, 30.79834%)" offset="0.890625"/><stop stop-opacity="1" stop-color="rgb(91.082764%, 69.172668%, 31.629944%)" offset="0.894531"/><stop stop-opacity="1" stop-color="rgb(91.668701%, 70.193481%, 32.463074%)" offset="0.898438"/><stop stop-opacity="1" stop-color="rgb(92.254639%, 71.214294%, 33.296204%)" offset="0.902344"/><stop stop-opacity="1" stop-color="rgb(92.842102%, 72.235107%, 34.129333%)" offset="0.90625"/><stop stop-opacity="1" stop-color="rgb(93.42804%, 73.25592%, 34.962463%)" offset="0.910156"/><stop stop-opacity="1" stop-color="rgb(94.013977%, 74.276733%, 35.795593%)" offset="0.914062"/><stop stop-opacity="1" stop-color="rgb(94.599915%, 75.297546%, 36.627197%)" offset="0.917969"/><stop stop-opacity="1" stop-color="rgb(95.185852%, 76.318359%, 37.460327%)" offset="0.921875"/><stop stop-opacity="1" stop-color="rgb(95.77179%, 77.339172%, 38.293457%)" offset="0.925781"/><stop stop-opacity="1" stop-color="rgb(96.359253%, 78.359985%, 39.126587%)" offset="0.929688"/><stop stop-opacity="1" stop-color="rgb(96.94519%, 79.380798%, 39.959717%)" offset="0.933594"/><stop stop-opacity="1" stop-color="rgb(97.531128%, 80.401611%, 40.792847%)" offset="0.9375"/><stop stop-opacity="1" stop-color="rgb(98.117065%, 81.422424%, 41.624451%)" offset="0.941406"/><stop stop-opacity="1" stop-color="rgb(98.703003%, 82.443237%, 42.457581%)" offset="0.945313"/><stop stop-opacity="1" stop-color="rgb(99.28894%, 83.46405%, 43.29071%)" offset="0.949219"/><stop stop-opacity="1" stop-color="rgb(99.876404%, 84.484863%, 44.12384%)" offset="0.953125"/><stop stop-opacity="1" stop-color="rgb(99.937439%, 84.591675%, 44.210815%)" offset="0.96875"/><stop stop-opacity="1" stop-color="rgb(100%, 84.698486%, 44.299316%)" offset="1"/></linearGradient></defs><g clip-path="url(#406ff1466d)"><g clip-path="url(#7090c3f475)"><g clip-path="url(#3f3b31fe19)"><g clip-path="url(#65c81badfd)"><g clip-path="url(#1202cdec5f)"><path fill="url(#042c39bc6d)" d="M 300.203125 -141.808594 L -128.109375 75.988281 L 93.433594 511.667969 L 521.746094 293.875 Z M 300.203125 -141.808594 " fill-rule="nonzero"/></g></g></g></g></g><g fill="#f8d26b" fill-opacity="1"><g transform="translate(51.12747, 152.563761)"><g><path d="M -1.214844 -4.761719 L -8.707031 -7.371094 L -8.414062 -8.207031 C -7.660156 -10.363281 -5.519531 -11.242188 -3.421875 -10.511719 C -1.320312 -9.777344 -0.179688 -7.734375 -0.925781 -5.597656 Z M -12.25 -5.523438 L 0.390625 -1.113281 L 1.699219 -4.867188 C 2.949219 -8.457031 1.136719 -12.109375 -2.429688 -13.355469 C -5.996094 -14.597656 -9.695312 -12.84375 -10.9375 -9.277344 Z M -12.25 -5.523438 "/></g></g></g><g fill="#f8d26b" fill-opacity="1"><g transform="translate(61.499509, 127.489545)"><g><path d="M 2 -3.617188 L -9.71875 -10.089844 L -11.144531 -7.503906 L 0.570312 -1.035156 Z M 2 -3.617188 "/></g></g></g><g fill="#f8d26b" fill-opacity="1"><g transform="translate(71.872684, 110.485373)"><g><path d="M -3.417969 -12.941406 C -2.597656 -13.949219 -1.34375 -14.648438 0.167969 -14.257812 L 2.21875 -16.777344 C -0.519531 -17.8125 -3.691406 -16.96875 -5.554688 -14.679688 C -7.941406 -11.75 -7.496094 -7.375 -4.566406 -4.988281 C -1.636719 -2.601562 2.738281 -3.050781 5.125 -5.980469 C 7.535156 -8.9375 7.066406 -13.257812 4.125 -15.65625 L 3.773438 -15.941406 L -0.390625 -10.828125 L 1.332031 -9.425781 L 3.484375 -12.066406 C 4.59375 -10.21875 3.871094 -8.675781 3.050781 -7.667969 C 1.707031 -6.023438 -0.890625 -5.855469 -2.644531 -7.285156 C -4.402344 -8.714844 -4.761719 -11.292969 -3.417969 -12.941406 Z M -3.417969 -12.941406 "/></g></g></g><g fill="#f8d26b" fill-opacity="1"><g transform="translate(92.141565, 88.379288)"><g><path d="M 3.140625 -2.6875 L -5.566406 -12.855469 L -7.808594 -10.933594 L 0.898438 -0.769531 Z M 3.140625 -2.6875 "/></g></g></g><g fill="#f8d26b" fill-opacity="1"><g transform="translate(107.959045, 76.125248)"><g><path d="M 0.324219 -12.714844 L 3.589844 -14.695312 L 2.199219 -16.984375 L -6.855469 -11.496094 L -5.464844 -9.207031 L -2.199219 -11.1875 L 3.347656 -2.03125 L 5.875 -3.5625 Z M 0.324219 -12.714844 "/></g></g></g><g fill="#f8d26b" fill-opacity="1"><g transform="translate(130.216253, 64.099759)"><g><path d="M 6.167969 -7.730469 L 2.992188 -6.558594 L 2.929688 -11.613281 Z M 12.628906 -4.660156 L 2.898438 -15.335938 L 0.554688 -14.46875 L 0.09375 -0.0351562 L 3.066406 -1.132812 L 3.035156 -3.996094 L 7.816406 -5.761719 L 9.65625 -3.5625 Z M 12.628906 -4.660156 "/></g></g></g><g fill="#f8d26b" fill-opacity="1"><g transform="translate(157.052386, 55.842795)"><g><path d="M 1.164062 -0.195312 L 8.8125 -1.476562 L 8.371094 -4.117188 L 3.632812 -3.324219 L 1.863281 -13.882812 L -1.050781 -13.394531 Z M 1.164062 -0.195312 "/></g></g></g><g fill="#f8d26b" fill-opacity="1"><g transform="translate(181.239828, 53.149671)"><g/></g></g><g fill="#f8d26b" fill-opacity="1"><g transform="translate(200.850225, 53.937397)"><g><path d="M 8.144531 -2.703125 C 8.011719 -1.828125 7.160156 -1.222656 6.285156 -1.355469 L 4.4375 -1.644531 L 4.929688 -4.832031 L 6.777344 -4.546875 C 7.652344 -4.410156 8.277344 -3.558594 8.144531 -2.703125 Z M 8.085938 -8.367188 C 7.957031 -7.53125 7.148438 -6.9375 6.3125 -7.070312 L 5.300781 -7.226562 L 5.777344 -10.296875 L 6.789062 -10.140625 C 7.625 -10.011719 8.21875 -9.222656 8.085938 -8.367188 Z M 11.109375 -2.164062 C 11.386719 -3.953125 10.363281 -5.324219 8.941406 -5.90625 C 10 -6.199219 10.742188 -7.121094 10.949219 -8.460938 C 11.230469 -10.269531 10.023438 -11.992188 7.765625 -12.339844 L 3.214844 -13.046875 L 1.167969 0.179688 L 6.515625 1.007812 C 9.042969 1.402344 10.757812 0.113281 11.109375 -2.164062 Z M 11.109375 -2.164062 "/></g></g></g><g fill="#f8d26b" fill-opacity="1"><g transform="translate(225.692701, 59.07711)"><g><path d="M 12.96875 -9.582031 L 10.371094 -2.296875 C 9.746094 -0.554688 8.878906 0.242188 6.96875 -0.4375 C 5.078125 -1.113281 4.890625 -2.289062 5.511719 -4.03125 L 8.113281 -11.316406 L 5.332031 -12.308594 L 2.585938 -4.613281 C 1.390625 -1.257812 2.695312 1.171875 5.976562 2.339844 C 9.257812 3.511719 11.808594 2.457031 13.003906 -0.898438 L 15.75 -8.589844 Z M 12.96875 -9.582031 "/></g></g></g><g fill="#f8d26b" fill-opacity="1"><g transform="translate(250.903311, 69.590493)"><g><path d="M 6.546875 1.46875 C 5.296875 0.726562 4.585938 -0.546875 5.332031 -1.953125 L 2.761719 -3.484375 C 1.109375 -0.667969 2.679688 1.960938 5.214844 3.472656 C 7.566406 4.871094 10.578125 5.316406 12.191406 2.609375 C 14.796875 -1.769531 7.277344 -4.257812 8.496094 -6.304688 C 9.007812 -7.164062 10.207031 -6.910156 10.917969 -6.484375 C 12.1875 -5.730469 12.648438 -4.929688 12.070312 -3.648438 L 14.519531 -2.1875 C 15.996094 -4.859375 14.492188 -7.175781 12.125 -8.585938 C 10.027344 -9.835938 7.164062 -10.027344 5.753906 -7.660156 C 3.226562 -3.417969 10.726562 -0.894531 9.398438 1.335938 C 8.785156 2.367188 7.339844 1.945312 6.546875 1.46875 Z M 6.546875 1.46875 "/></g></g></g><g fill="#f8d26b" fill-opacity="1"><g transform="translate(273.308592, 84.717921)"><g><path d="M 3.144531 2.679688 L 11.828125 -7.503906 L 9.578125 -9.421875 L 0.898438 0.765625 Z M 3.144531 2.679688 "/></g></g></g><g fill="#f8d26b" fill-opacity="1"><g transform="translate(287.891206, 98.363304)"><g><path d="M 7.484375 8.980469 L 17.765625 0.414062 L 15.875 -1.855469 L 9.464844 3.488281 L 12.925781 -5.390625 L 11.039062 -7.660156 L 0.757812 0.90625 L 2.644531 3.175781 L 9.058594 -2.167969 L 5.59375 6.714844 Z M 7.484375 8.980469 "/></g></g></g><g fill="#f8d26b" fill-opacity="1"><g transform="translate(304.263805, 120.329988)"><g><path d="M 6.683594 6.503906 L 4.347656 2.308594 L 6.703125 0.996094 L 8.945312 5.023438 L 11.285156 3.71875 L 9.042969 -0.304688 L 11.367188 -1.597656 L 13.703125 2.597656 L 16.039062 1.296875 L 12.269531 -5.476562 L 0.574219 1.03125 L 4.347656 7.808594 Z M 6.683594 6.503906 "/></g></g></g><g fill="#f8d26b" fill-opacity="1"><g transform="translate(315.161653, 142.458218)"><g><path d="M 4 5.386719 C 3.539062 4.003906 3.832031 2.578125 5.316406 2 L 4.367188 -0.839844 C 1.277344 0.214844 0.75 3.234375 1.6875 6.035156 C 2.554688 8.628906 4.550781 10.929688 7.535156 9.929688 C 12.371094 8.3125 8.292969 1.523438 10.550781 0.765625 C 11.503906 0.449219 12.242188 1.425781 12.507812 2.207031 C 12.972656 3.609375 12.800781 4.515625 11.527344 5.109375 L 12.429688 7.816406 C 15.292969 6.753906 15.664062 4.015625 14.789062 1.402344 C 14.015625 -0.910156 11.972656 -2.925781 9.359375 -2.050781 C 4.671875 -0.484375 8.714844 6.320312 6.25 7.144531 C 5.113281 7.523438 4.296875 6.261719 4 5.386719 Z M 4 5.386719 "/></g></g></g><g fill="#f8d26b" fill-opacity="1"><g transform="translate(322.356245, 168.370732)"><g><path d="M 2.894531 6.054688 C 2.707031 4.609375 3.265625 3.265625 4.835938 2.980469 L 4.449219 0.015625 C 1.210938 0.457031 0.117188 3.320312 0.5 6.246094 C 0.851562 8.960938 2.367188 11.601562 5.492188 11.191406 C 10.546875 10.53125 7.847656 3.082031 10.207031 2.773438 C 11.203125 2.644531 11.742188 3.746094 11.851562 4.566406 C 12.042969 6.027344 11.699219 6.886719 10.332031 7.226562 L 10.703125 10.054688 C 13.714844 9.5625 14.601562 6.945312 14.246094 4.210938 C 13.929688 1.792969 12.308594 -0.578125 9.578125 -0.21875 C 4.679688 0.421875 7.339844 7.875 4.765625 8.210938 C 3.574219 8.367188 3.015625 6.96875 2.894531 6.054688 Z M 2.894531 6.054688 "/></g></g></g><g fill="#f8d26b" fill-opacity="1"><g transform="translate(324.330468, 195.340458)"><g/></g></g><g fill="#f8d26b" fill-opacity="1"><g transform="translate(322.742558, 214.831111)"><g><path d="M 2.160156 11.558594 C 1.121094 10.773438 0.613281 9.292969 0.90625 7.945312 C 1.359375 5.832031 3.535156 4.527344 5.765625 5.007812 C 7.976562 5.484375 9.441406 7.570312 8.984375 9.6875 C 8.699219 11.015625 7.6875 12.167969 6.394531 12.453125 L 5.703125 15.664062 C 8.566406 15.355469 11.035156 13.25 11.679688 10.269531 C 12.480469 6.554688 10.109375 2.882812 6.394531 2.082031 C 2.683594 1.28125 -0.988281 3.652344 -1.789062 7.367188 C -2.433594 10.347656 -1.035156 13.304688 1.464844 14.773438 Z M 2.160156 11.558594 "/></g></g></g><g fill="#f8d26b" fill-opacity="1"><g transform="translate(315.137904, 242.85606)"><g><path d="M 1.253906 9.808594 L 2.621094 6.714844 L 6.292969 10.191406 Z M -5.449219 12.308594 L 8.984375 12.761719 L 10 10.476562 L -0.0390625 0.0898438 L -1.324219 2.988281 L 0.753906 4.960938 L -1.3125 9.621094 L -4.167969 9.410156 Z M -5.449219 12.308594 "/></g></g></g><g fill="#f8d26b" fill-opacity="1"><g transform="translate(302.411038, 267.854665)"><g><path d="M 1.5625 6.125 L 1.550781 6.140625 L -4.195312 6.023438 L -6.332031 9.09375 L -0.101562 8.753906 C -0.730469 10.378906 -0.28125 12.351562 1.578125 13.644531 C 3.660156 15.09375 6.199219 14.511719 7.4375 12.738281 L 8.621094 11.042969 L 9.035156 10.445312 L 10.308594 8.617188 L -0.675781 0.96875 L -2.363281 3.390625 Z M 5.8125 11.003906 C 5.320312 11.714844 4.1875 12.03125 3.1875 11.335938 C 2.136719 10.601562 2.074219 9.457031 2.566406 8.746094 L 3.46875 7.453125 L 6.714844 9.714844 Z M 5.8125 11.003906 "/></g></g></g><g fill="#f8d26b" fill-opacity="1"><g transform="translate(286.866942, 287.912858)"><g><path d="M -1.027344 4.804688 L 4.519531 10.472656 L 3.886719 11.09375 C 2.253906 12.691406 -0.0546875 12.527344 -1.609375 10.9375 C -3.164062 9.347656 -3.277344 7.007812 -1.660156 5.421875 Z M 8.515625 10.394531 L -0.84375 0.824219 L -3.6875 3.605469 C -6.402344 6.261719 -6.40625 10.339844 -3.761719 13.042969 C -1.121094 15.742188 2.972656 15.816406 5.671875 13.171875 Z M 8.515625 10.394531 "/></g></g></g><g fill="#efc75e" fill-opacity="1"><g transform="translate(143.312256, 196.488739)"><g><path d="M 0 0 L 28.835938 0 C 46.914062 0 65.214844 -5.878906 65.214844 -38.375 C 65.214844 -70.980469 46.691406 -75.859375 28.835938 -75.859375 L 0 -75.859375 L 0 -74.863281 C 4.769531 -75.085938 7.097656 -71.867188 7.097656 -60.113281 L 7.097656 -15.636719 C 7.097656 -3.882812 4.769531 -0.777344 0 -1 Z M 17.632812 -73.863281 L 31.941406 -73.863281 C 46.914062 -73.863281 54.675781 -59.335938 54.675781 -38.375 C 54.675781 -17.414062 47.246094 -1.996094 31.941406 -1.996094 L 17.632812 -1.996094 Z M 17.632812 -73.863281 "/></g></g></g><g fill="#efc75e" fill-opacity="1"><g transform="translate(169.967278, 242.74306)"><g><path d="M 66.542969 -65.65625 C 59.113281 -72.089844 48.578125 -75.859375 38.261719 -75.859375 C 17.191406 -75.859375 0 -59.226562 0 -37.929688 C 0 -16.191406 16.523438 0 38.261719 0 C 50.574219 0 62.332031 -5.65625 68.875 -17.414062 L 68.097656 -17.96875 C 63.882812 -12.089844 58.117188 -8.316406 51.574219 -6.765625 C 34.9375 -2.773438 18.078125 -12.644531 12.3125 -28.613281 C 6.988281 -43.363281 8.871094 -65.546875 25.730469 -71.648438 C 37.375 -75.859375 51.019531 -72.089844 62.441406 -54.898438 Z M 66.542969 -65.65625 "/></g></g></g><path stroke-linecap="butt" transform="matrix(0.263174, 0.711799, -0.703458, 0.26009, 190.452472, 163.617836)" fill="none" stroke-linejoin="miter" d="M -0.0010013 1.99775 L 35.586464 2.001191 " stroke="#bd6513" stroke-width="4" stroke-opacity="1" stroke-miterlimit="4"/></svg>